<?xml version="1.0" standalone="no"?>
<!DOCTYPE svg PUBLIC "-//W3C//DTD SVG 20010904//EN"
 "http://www.w3.org/TR/2001/REC-SVG-20010904/DTD/svg10.dtd">
<svg version="1.0" xmlns="http://www.w3.org/2000/svg"
 width="300.000000pt" height="300.000000pt" viewBox="0 0 300.000000 300.000000"
 preserveAspectRatio="xMidYMid meet">
<metadata>
Created by potrace 1.14, written by Peter Selinger 2001-2017
</metadata>
<g transform="translate(0.000000,300.000000) scale(0.100000,-0.100000)"
fill="#000000" stroke="none">
<path d="M7 2993 c-4 -3 -7 -678 -7 -1500 l0 -1493 1500 0 1500 0 0 69 c0 46
-4 71 -12 74 -10 4 -10 6 0 6 9 1 12 293 12 1426 l0 1426 -237 -2 c-222 -1
-236 -2 -216 -17 20 -17 38 -52 26 -52 -4 0 -24 12 -45 27 -28 19 -35 29 -26
35 7 4 -69 8 -169 7 -134 0 -183 -3 -183 -12 0 -8 -3 -8 -9 1 -10 16 -149 15
-170 -2 -11 -8 -13 -8 -7 1 5 10 -90 13 -456 12 -255 -1 -457 -3 -451 -6 7 -2
13 -9 13 -15 0 -6 -8 -4 -18 5 -17 15 -68 17 -529 17 -280 0 -513 -3 -516 -7z
m2033 -18 c-7 -8 -22 -14 -34 -14 -20 2 -20 2 2 6 12 2 22 9 22 14 0 5 5 9 11
9 8 0 8 -5 -1 -15z m188 -19 c-7 -8 -15 -12 -17 -11 -5 6 10 25 20 25 5 0 4
-6 -3 -14z m-1660 -25 c3 -8 -1 -12 -9 -9 -7 2 -15 10 -17 17 -3 8 1 12 9 9 7
-2 15 -10 17 -17z m1952 9 c0 -5 -7 -7 -15 -4 -8 4 -15 8 -15 10 0 2 7 4 15 4
8 0 15 -4 15 -10z m-480 -7 c-8 -3 -21 -12 -27 -21 -7 -9 -16 -12 -20 -9 -9 9
27 37 47 36 13 -1 13 -1 0 -6z m-1437 -73 c-6 -6 -33 30 -33 44 0 6 9 0 20
-14 10 -14 16 -27 13 -30z m1454 34 c-3 -3 -12 -4 -19 -1 -8 3 -5 6 6 6 11 1
17 -2 13 -5z m-62 -34 c3 -6 -4 -10 -17 -10 -18 0 -20 2 -8 10 19 12 18 12 25
0z m58 0 c3 6 5 6 3 -1 -3 -17 -33 -20 -33 -3 0 10 4 11 13 3 8 -7 14 -6 17 1z
m-1423 -40 c0 -5 -2 -10 -4 -10 -3 0 -8 5 -11 10 -3 6 -1 10 4 10 6 0 11 -4
11 -10z m40 -45 c7 -8 8 -15 2 -15 -5 0 -15 7 -22 15 -7 8 -8 15 -2 15 5 0 15
-7 22 -15z m1355 6 c10 -17 -9 -20 -30 -5 -18 14 -18 14 2 14 12 0 24 -4 28
-9z m395 5 c0 -3 -4 -8 -10 -11 -5 -3 -10 -1 -10 4 0 6 5 11 10 11 6 0 10 -2
10 -4z m-640 -46 c0 -5 -2 -10 -4 -10 -3 0 -8 5 -11 10 -3 6 -1 10 4 10 6 0
11 -4 11 -10z m-1070 -44 c0 -6 -7 -2 -15 8 -8 11 -15 25 -15 30 0 6 7 2 15
-8 8 -11 15 -25 15 -30z m1597 -61 c-4 -8 -11 -15 -17 -15 -7 0 -7 6 0 21 13
23 26 19 17 -6z m-1541 -32 c-7 -7 -26 7 -26 19 0 6 6 6 15 -2 9 -7 13 -15 11
-17z m1219 7 c-3 -5 -12 -10 -18 -10 -7 0 -6 4 3 10 19 12 23 12 15 0z m-1190
-51 c11 -17 -1 -21 -15 -4 -8 9 -8 15 -2 15 6 0 14 -5 17 -11z m30 -49 c3 -6
-1 -7 -9 -4 -18 7 -21 14 -7 14 6 0 13 -4 16 -10z m25 -41 c0 -6 -4 -7 -10 -4
-5 3 -10 11 -10 16 0 6 5 7 10 4 6 -3 10 -11 10 -16z m25 -39 c3 -5 2 -10 -4
-10 -5 0 -13 5 -16 10 -3 6 -2 10 4 10 5 0 13 -4 16 -10z m31 -57 c-4 -4 -11
-1 -16 7 -16 25 -11 35 7 17 9 -9 13 -20 9 -24z m1245 10 c-11 -36 -61 -131
-83 -157 -26 -29 -22 -15 16 56 18 35 41 78 50 96 20 39 27 41 17 5z m-1213
-59 c2 -10 12 -28 22 -39 19 -22 33 -65 20 -65 -11 0 -21 30 -14 41 3 5 1 9
-5 9 -9 0 -51 61 -51 75 0 15 25 -3 28 -21z m529 -10 c-3 -3 -12 -4 -19 -1 -8
3 -5 6 6 6 11 1 17 -2 13 -5z m88 -17 l50 -3 -57 -2 c-49 -2 -58 1 -58 16 0
11 3 13 8 5 4 -6 30 -13 57 -16z m72 17 c-3 -3 -12 -4 -19 -1 -8 3 -5 6 6 6
11 1 17 -2 13 -5z m-247 -38 c-30 -7 -68 -16 -85 -21 -16 -4 -27 -5 -24 -1 11
12 94 34 129 34 29 0 26 -2 -20 -12z m-140 -6 c0 -5 -4 -10 -10 -10 -5 0 -10
5 -10 10 0 6 5 10 10 10 6 0 10 -4 10 -10z m545 -11 c13 -13 -3 -10 -45 7
l-35 14 35 -6 c19 -3 39 -10 45 -15z m65 1 c0 -5 -5 -10 -11 -10 -5 0 -7 5 -4
10 3 6 8 10 11 10 2 0 4 -4 4 -10z m-326 -18 c2 -4 -13 -8 -35 -7 -21 0 -39 3
-39 8 0 10 67 9 74 -1z m190 -11 c26 -6 60 -18 74 -25 25 -13 24 -14 -26 -12
-33 2 -57 8 -62 16 -5 8 -12 11 -16 7 -4 -4 -13 -2 -20 4 -7 6 -27 11 -44 11
-17 1 -33 5 -36 10 -7 11 60 5 130 -11z m-459 -1 c-28 -12 -37 -12 -30 0 3 6
16 10 28 9 21 0 21 -1 2 -9z m145 6 c0 -2 -9 -6 -20 -9 -11 -3 -20 -1 -20 4 0
5 9 9 20 9 11 0 20 -2 20 -4z m-384 -61 c-21 -16 -32 -13 -21 4 3 6 14 11 23
11 15 -1 15 -2 -2 -15z m192 -8 c-21 -12 -38 -26 -38 -30 0 -5 4 -5 10 -2 6 3
7 -1 3 -10 -5 -13 -7 -14 -14 -3 -7 10 -11 10 -21 -3 -7 -9 -29 -27 -48 -40
-19 -13 -44 -31 -54 -41 -26 -23 -42 -11 -19 14 22 25 193 138 208 138 5 -1
-7 -11 -27 -23z m476 2 c154 -28 358 -170 429 -298 33 -59 21 -69 -15 -13 -46
68 -110 133 -175 176 -34 24 -60 46 -55 51 4 5 2 5 -5 1 -7 -4 -25 -1 -40 7
-29 15 -57 12 -47 -4 3 -5 -1 -9 -8 -9 -7 -1 2 -7 20 -15 18 -8 31 -18 29 -22
-3 -5 12 -19 34 -32 21 -14 36 -28 33 -33 -3 -4 3 -8 13 -8 14 0 15 -2 4 -9
-10 -7 -11 -13 -1 -32 l11 -24 -20 23 c-10 12 -24 22 -29 22 -6 0 -8 9 -5 19
3 14 -2 21 -18 26 -13 4 -30 14 -38 23 -14 14 -16 13 -21 -6 -4 -18 -7 -19
-23 -7 -17 12 -17 14 -1 23 13 7 4 12 -42 25 -33 8 -50 15 -39 16 11 0 42 -6
69 -14 69 -21 69 -11 -1 14 -44 16 -49 20 -23 16 27 -4 38 -1 47 14 10 16 7
20 -30 31 -96 29 -178 37 -261 24 -45 -6 -84 -10 -88 -7 -18 10 -6 32 20 35
49 6 216 -2 276 -13z m187 -4 c16 -9 27 -20 23 -26 -4 -6 -14 -3 -26 8 -11 10
-30 17 -42 15 -17 -2 -18 -1 -6 7 19 13 16 14 51 -4z m184 5 c-3 -5 -12 -7
-20 -3 -21 7 -19 13 6 13 11 0 18 -4 14 -10z m-695 -20 c0 -11 -6 -20 -13 -20
-14 0 -179 -78 -187 -88 -3 -4 -32 -32 -65 -62 -33 -30 -64 -62 -70 -71 -52
-85 -87 -155 -108 -214 -29 -84 -43 -165 -28 -165 6 0 11 -4 11 -10 0 -5 -14
-10 -31 -10 -31 0 -31 0 -24 43 4 23 10 44 14 47 3 3 6 10 6 15 0 23 49 154
77 206 29 55 50 81 147 184 47 50 150 118 176 118 8 0 12 4 9 9 -5 8 50 37 74
38 6 0 12 -9 12 -20z m630 16 c0 -3 -4 -8 -10 -11 -5 -3 -10 -1 -10 4 0 6 5
11 10 11 6 0 10 -2 10 -4z m-930 -36 c0 -5 -5 -10 -11 -10 -5 0 -7 5 -4 10 3
6 8 10 11 10 2 0 4 -4 4 -10z m411 -21 l-23 -19 36 0 c29 0 34 3 30 18 -5 14
-3 14 10 -2 9 -11 16 -26 16 -33 0 -7 4 -13 9 -13 5 0 7 -10 5 -22 l-5 -23 11
23 c5 12 15 32 20 45 8 17 9 10 5 -31 -4 -37 -3 -52 5 -47 6 3 8 10 6 14 -6 9
22 51 34 51 8 0 -33 -137 -45 -148 -3 -3 -14 7 -26 21 -11 15 -27 27 -35 27
-17 0 -19 46 -1 53 9 4 8 8 -3 16 -13 9 -13 12 -1 20 9 6 -6 9 -43 10 -31 0
-56 -3 -56 -8 0 -5 11 -6 24 -4 13 3 26 0 30 -5 3 -6 -9 -12 -29 -14 -24 -3
-35 0 -35 9 0 8 -13 13 -32 14 -28 0 -30 2 -13 9 11 5 34 9 50 9 21 1 26 4 16
10 -11 7 -11 9 0 13 11 4 11 8 2 19 -10 13 -7 14 24 11 l37 -5 -23 -18z m-493
-24 c-3 -3 -9 2 -12 12 -6 14 -5 15 5 6 7 -7 10 -15 7 -18z m672 5 c0 -5 -5
-10 -11 -10 -5 0 -7 5 -4 10 3 6 8 10 11 10 2 0 4 -4 4 -10z m330 0 c0 -5 -5
-10 -11 -10 -5 0 -7 5 -4 10 3 6 8 10 11 10 2 0 4 -4 4 -10z m-1040 -25 c0 -7
-13 -23 -30 -35 -16 -12 -30 -17 -30 -11 0 6 5 11 11 11 5 0 7 5 3 12 -4 6 -3
8 3 5 14 -9 37 19 27 34 -4 8 -3 9 4 5 7 -4 12 -13 12 -21z m400 0 c0 -8 -9
-15 -20 -15 -27 0 -26 -19 2 -29 20 -7 20 -8 -11 -19 -29 -10 -32 -10 -26 7 3
11 1 22 -5 26 -6 4 -13 -7 -16 -25 -4 -17 -11 -33 -17 -37 -13 -8 0 47 16 65
8 10 49 33 75 41 1 1 2 -6 2 -14z m740 -50 c25 -30 3 -25 -26 6 -22 24 -24 29
-8 21 11 -6 27 -18 34 -27z m-355 15 c3 -6 -1 -7 -9 -4 -18 7 -21 14 -7 14 6
0 13 -4 16 -10z m-867 -20 c7 -11 9 -20 4 -20 -4 0 -13 9 -20 20 -7 11 -9 20
-4 20 4 0 13 -9 20 -20z m632 11 c0 -8 -60 -23 -87 -23 -19 1 -12 21 9 25 42
8 78 7 78 -2z m-486 -18 c10 -24 -26 -57 -53 -48 -19 6 -19 8 -6 22 9 8 22 12
31 9 12 -4 14 -1 9 14 -8 24 10 27 19 3z m213 -5 c-3 -8 -6 -5 -6 6 -1 11 2
17 5 13 3 -3 4 -12 1 -19z m163 -2 c0 -8 -5 -18 -12 -22 -7 -4 -8 -3 -4 4 5 8
-1 12 -14 12 -13 0 -19 -4 -14 -12 4 -7 3 -8 -4 -4 -7 4 -12 1 -12 -6 0 -10
-2 -10 -8 0 -6 9 -13 7 -30 -8 -11 -11 -24 -16 -27 -11 -6 11 6 20 60 43 50
21 65 22 65 4z m297 -8 c-3 -8 -6 -5 -6 6 -1 11 2 17 5 13 3 -3 4 -12 1 -19z
m72 2 c10 -5 10 -9 2 -14 -6 -4 -11 -2 -11 5 0 8 -4 8 -15 -1 -8 -7 -15 -15
-15 -19 0 -10 44 -9 51 1 3 5 12 1 20 -8 10 -13 10 -16 1 -10 -7 4 -19 2 -27
-4 -8 -7 -15 -8 -15 -3 0 5 -14 10 -30 10 -17 0 -36 5 -42 11 -8 8 -5 9 12 5
15 -4 21 -2 16 5 -3 6 -1 14 5 18 8 4 7 9 -2 16 -16 11 27 1 50 -12z m-548
-140 c7 -15 13 -20 16 -12 3 6 9 10 14 6 5 -3 9 2 9 10 0 20 16 21 24 1 4 -10
-2 -19 -18 -25 -13 -4 -36 -20 -52 -35 -26 -24 -29 -25 -41 -9 -7 9 -14 22
-17 28 -3 6 -13 0 -25 -14 -11 -14 -27 -33 -35 -42 -9 -10 -16 -23 -16 -29 0
-7 -9 -9 -21 -6 -23 6 -49 -1 -49 -13 0 -5 6 -15 14 -22 18 -18 32 -63 17 -54
-6 4 -11 2 -11 -3 0 -6 -5 -11 -11 -11 -8 0 -8 4 -2 13 7 8 6 22 -3 42 l-12
30 -12 -30 c-6 -16 -14 -45 -17 -63 -7 -38 -23 -54 -22 -20 1 36 33 131 44
131 29 0 66 27 99 70 34 45 53 92 20 51 -8 -10 -13 -13 -9 -6 4 7 0 12 -10 12
-13 0 -16 -6 -11 -24 9 -35 -12 -43 -24 -10 -9 22 -6 32 14 59 14 18 22 35 19
39 -4 3 -1 6 5 6 6 0 13 -4 17 -10 11 -17 33 1 28 23 -5 22 -5 22 11 2 10 -11
15 -14 11 -8 -3 7 2 24 12 37 l18 24 7 -57 c4 -31 13 -67 19 -81z m938 86 c-2
-2 -13 8 -23 22 l-19 27 24 -22 c12 -12 21 -24 18 -27z m-709 18 c26 5 31 3
26 -9 -3 -8 -1 -17 3 -20 5 -2 11 5 14 16 6 24 27 17 27 -9 0 -10 -8 -18 -17
-18 -35 -1 -81 -12 -103 -24 -20 -11 -21 -10 -15 12 4 12 13 29 19 37 9 12 5
13 -24 8 l-35 -6 30 14 c20 9 32 10 36 3 4 -7 20 -8 39 -4z m140 -63 c0 -8
-21 -57 -47 -108 -32 -63 -50 -90 -57 -83 -5 5 -17 10 -25 10 -11 0 -9 -6 9
-20 26 -20 13 -27 -19 -11 -16 9 -13 18 31 106 26 53 51 115 54 137 l7 40 23
-29 c13 -15 23 -35 24 -42z m-330 44 c0 -8 -7 -15 -15 -15 -26 0 -18 20 13 29
1 1 2 -6 2 -14z m435 1 c11 -8 25 -12 32 -9 17 7 17 -11 0 -26 -18 -15 -67 8
-67 32 0 21 10 22 35 3z m303 -38 c51 -68 79 -123 98 -198 22 -87 32 -160 23
-160 -5 0 -9 13 -9 29 0 46 -23 133 -36 138 -6 2 -10 12 -7 22 2 9 -3 23 -11
30 -9 8 -16 22 -16 33 0 11 -4 16 -11 12 -8 -4 -9 1 -4 16 5 17 4 21 -5 15 -9
-6 -11 -4 -5 5 4 7 4 15 -1 19 -5 3 -14 15 -20 26 -7 11 -19 19 -27 17 -17 -3
-41 31 -30 42 12 12 21 5 61 -46z m-1028 31 c0 -5 -15 -29 -32 -52 -18 -23
-34 -44 -35 -45 -4 -9 -37 18 -39 32 -1 9 2 14 6 11 5 -3 21 10 36 30 25 33
64 48 64 24z m356 -4 c-11 -8 -22 -12 -25 -9 -6 6 19 24 34 24 6 -1 1 -7 -9
-15z m519 5 c-3 -5 -12 -10 -19 -10 -9 0 -12 -10 -10 -30 2 -16 -1 -32 -7 -36
-17 -10 -24 6 -11 27 10 16 10 20 -3 25 -8 4 -15 11 -15 16 0 6 6 8 13 5 8 -3
20 -1 28 4 19 12 32 11 24 -1z m-465 -21 c0 -6 -7 -8 -16 -5 -14 5 -15 4 -5
-8 10 -11 6 -17 -20 -30 -26 -13 -34 -14 -41 -4 -13 22 -9 31 12 25 11 -3 18
-1 15 3 -6 10 23 29 43 30 6 0 12 -5 12 -11z m563 -50 c36 -38 56 -66 53 -75
-3 -8 -2 -13 3 -9 12 7 55 -81 46 -95 -10 -16 -27 0 -20 18 3 9 3 13 -1 10 -4
-4 -22 18 -41 50 -19 31 -44 67 -56 80 -20 22 -20 23 -2 17 20 -7 20 -6 1 9
-11 9 -27 16 -36 16 -17 0 -40 18 -40 32 0 24 42 0 93 -53z m247 46 c10 -12
10 -15 -3 -15 -8 0 -17 7 -21 15 -3 8 -2 15 3 15 5 0 14 -7 21 -15z m-406 -4
c8 -12 -21 -34 -33 -27 -6 4 -8 13 -4 21 6 17 29 20 37 6z m80 -26 c3 -8 2
-15 -3 -15 -5 0 -14 7 -21 15 -10 12 -10 15 3 15 8 0 17 -7 21 -15z m-1144
-10 c7 -8 8 -15 2 -15 -5 0 -15 7 -22 15 -7 8 -8 15 -2 15 5 0 15 -7 22 -15z
m767 9 c-3 -3 -12 -4 -19 -1 -8 3 -5 6 6 6 11 1 17 -2 13 -5z m-791 -26 c10
-13 12 -17 4 -10 -20 17 -35 15 -20 -3 11 -13 10 -14 -4 -9 -18 7 -18 7 -10
28 8 20 7 20 30 -6z m1528 6 c5 -14 4 -15 -9 -4 -17 14 -19 20 -6 20 5 0 12
-7 15 -16z m-1326 -40 c15 -7 21 -13 14 -13 -23 -2 -72 32 -72 49 1 12 4 11
15 -5 9 -10 28 -25 43 -31z m827 28 c-3 -3 -11 0 -18 7 -9 10 -8 11 6 5 10 -3
15 -9 12 -12z m139 2 c9 -8 16 -17 16 -19 0 -9 -54 13 -58 23 -5 17 24 15 42
-4z m-505 -8 c-10 -9 -89 -46 -89 -41 0 6 72 44 84 45 5 0 7 -2 5 -4z m902
-13 c13 -16 12 -17 -3 -4 -10 7 -18 15 -18 17 0 8 8 3 21 -13z m-1214 -13 c-1
-22 -17 -28 -17 -7 0 12 9 27 16 27 2 0 2 -9 1 -20z m-193 -13 c16 -12 15 -15
-13 -54 -45 -62 -84 -143 -90 -188 -6 -40 -6 -40 -46 -37 -49 5 -52 7 -32 30
15 16 15 19 -3 30 -24 14 -50 6 -50 -17 0 -10 3 -12 8 -5 7 11 42 15 42 5 0
-3 -7 -15 -15 -25 -11 -15 -18 -17 -26 -9 -8 8 -20 8 -34 3 -17 -7 -25 -5 -29
6 -11 29 -5 39 10 19 16 -19 16 -19 11 9 -3 19 2 40 14 60 10 17 19 24 19 15
0 -8 -5 -20 -12 -27 -6 -6 -9 -15 -5 -18 9 -9 34 19 30 33 -2 6 1 14 6 18 7 3
11 -2 11 -14 0 -11 5 -23 10 -26 12 -8 40 12 40 27 0 6 -7 5 -15 -2 -12 -10
-15 -9 -15 7 0 14 10 23 33 31 l32 10 -30 1 -29 1 32 30 c20 18 39 27 50 24
14 -5 15 -4 2 5 -11 8 -12 11 -2 11 7 0 10 5 7 10 -3 6 -2 10 4 10 5 0 12 -6
15 -12 2 -7 4 -2 3 12 -1 18 3 25 16 24 9 -1 17 2 17 7 0 13 13 11 34 -4z
m623 7 c-3 -3 -12 -4 -19 -1 -8 3 -5 6 6 6 11 1 17 -2 13 -5z m183 -10 c0 -2
-7 -4 -15 -4 -8 0 -15 4 -15 10 0 5 7 7 15 4 8 -4 15 -8 15 -10z m250 6 c0 -5
-4 -10 -10 -10 -5 0 -10 5 -10 10 0 6 5 10 10 10 6 0 10 -4 10 -10z m316 -149
c8 -35 14 -89 12 -120 -3 -55 -3 -54 -16 39 -7 52 -24 121 -37 154 -13 33 -21
64 -18 69 8 13 42 -68 59 -142z m-1066 135 c0 -2 -7 -9 -15 -16 -13 -11 -14
-10 -9 4 5 14 24 23 24 12z m126 -95 c2 -2 18 9 36 24 36 30 110 65 136 64 9
0 -5 -10 -33 -23 -27 -13 -73 -42 -102 -65 -29 -22 -56 -41 -60 -41 -5 0 -23
23 -40 51 l-32 52 22 18 c22 17 22 17 46 -29 13 -26 25 -49 27 -51z m414 61
c32 -15 81 -52 116 -87 34 -34 79 -75 100 -91 85 -64 92 -74 45 -71 -16 1 -27
5 -25 9 4 6 -67 70 -72 65 -4 -4 15 -110 21 -115 3 -4 9 -2 13 3 4 6 21 11 37
12 21 2 5 -9 -57 -39 -49 -22 -88 -44 -88 -49 0 -4 33 7 73 26 83 39 127 53
112 36 -6 -6 -28 -17 -50 -25 -25 -9 -33 -15 -20 -16 13 -1 -1 -12 -38 -31
-60 -31 -70 -31 -87 1 -9 17 -4 23 38 44 l49 25 -7 54 c-10 67 -37 122 -89
176 -39 41 -129 91 -164 91 -10 0 -15 5 -12 10 8 13 33 6 105 -28z m6 22 c18
-14 18 -14 -6 -3 -31 14 -36 19 -24 19 6 0 19 -7 30 -16z m-646 -10 c0 -11 -5
-14 -16 -10 -9 3 -21 6 -27 7 -7 0 -3 4 8 9 29 13 35 12 35 -6z m-436 -12 c3
-5 -1 -9 -9 -9 -8 0 -15 4 -15 9 0 4 4 8 9 8 6 0 12 -4 15 -8z m1690 -7 c-4
-8 -1 -15 5 -15 6 0 11 -12 11 -26 0 -14 4 -23 10 -19 6 3 10 0 10 -7 0 -7 3
-23 6 -35 4 -13 2 -23 -4 -23 -6 0 -14 10 -17 23 -4 12 -14 36 -22 53 -14 27
-13 64 1 64 3 0 3 -7 0 -15z m-1610 -10 c-4 -8 -11 -15 -16 -15 -6 0 -5 6 2
15 7 8 14 15 16 15 2 0 1 -7 -2 -15z m152 -19 c-14 -22 -33 -105 -27 -115 2
-2 -1 -7 -6 -10 -13 -10 -39 -45 -28 -39 12 7 38 -19 27 -26 -5 -3 -17 -3 -28
-2 -10 2 -23 -2 -27 -8 -5 -6 -6 10 -3 36 6 54 45 137 78 168 29 27 34 25 14
-4z m333 12 c-2 -2 -17 -14 -34 -28 l-30 -25 29 32 c16 18 32 31 34 28 3 -3 3
-6 1 -7z m-602 -23 c-15 -16 -19 -13 -11 9 3 9 10 13 15 10 5 -3 3 -11 -4 -19z
m533 18 c-1 -10 -26 -43 -33 -43 -3 0 0 11 6 25 11 23 27 34 27 18z m485 -3
c3 -5 1 -10 -4 -10 -6 0 -11 5 -11 10 0 6 2 10 4 10 3 0 8 -4 11 -10z m-545
-14 c0 -3 -4 -8 -10 -11 -5 -3 -10 -1 -10 4 0 6 5 11 10 11 6 0 10 -2 10 -4z
m396 -42 c18 -14 18 -14 -6 -3 -31 14 -36 19 -24 19 6 0 19 -7 30 -16z m-216
2 c0 -2 -24 -23 -52 -47 l-53 -43 45 47 c39 41 60 56 60 43z m120 0 c0 -3 -4
-8 -10 -11 -5 -3 -10 -1 -10 4 0 6 5 11 10 11 6 0 10 -2 10 -4z m325 -6 c3 -5
2 -10 -4 -10 -5 0 -13 5 -16 10 -3 6 -2 10 4 10 5 0 13 -4 16 -10z m-237 -12
c15 -15 -5 -48 -112 -187 -46 -61 -75 -106 -68 -109 7 -2 9 -8 6 -14 -4 -6 -1
-9 7 -6 13 4 59 -52 59 -72 0 -5 7 -7 16 -3 12 4 14 0 9 -23 -3 -16 -2 -23 1
-17 9 20 86 -27 80 -50 -4 -16 -2 -15 22 2 15 11 45 35 67 54 35 30 38 36 26
51 -9 11 -17 13 -21 6 -12 -20 -170 162 -170 197 0 31 15 29 35 -4 l16 -28
122 1 c67 1 101 -1 75 -3 -46 -4 -62 -16 -35 -26 6 -3 -7 -6 -30 -6 -23 -1
-45 4 -48 9 -3 6 -16 10 -27 10 -21 0 -21 0 -2 -22 19 -21 19 -21 -1 -14 -11
4 10 -23 47 -60 l67 -67 55 42 c44 34 59 41 70 32 7 -6 21 -9 30 -5 25 9 19
-6 -11 -32 -16 -14 -35 -21 -45 -18 -9 2 -19 0 -23 -5 -4 -7 1 -9 12 -5 12 4
9 -3 -10 -20 -16 -15 -25 -31 -21 -38 5 -7 2 -9 -8 -5 -22 8 -99 -50 -91 -68
3 -8 0 -15 -7 -15 -6 0 -8 5 -5 10 12 20 -9 9 -54 -27 -25 -20 -47 -37 -49
-38 -1 -1 0 -10 4 -19 4 -10 13 -14 24 -11 11 3 17 0 17 -10 0 -9 -6 -14 -13
-11 -7 3 -15 0 -17 -7 -3 -8 -14 -2 -30 14 -14 15 -25 28 -24 30 1 2 0 3 -2 1
-10 -6 -10 -42 -1 -42 15 0 30 -43 19 -55 -7 -6 -13 -5 -18 4 -5 7 -14 10 -20
7 -6 -4 -11 0 -11 8 0 9 -6 16 -14 16 -18 0 -109 -98 -101 -110 8 -14 84 -46
130 -55 120 -24 259 -24 350 0 39 10 77 19 86 20 9 0 28 11 44 23 15 12 32 19
37 16 14 -9 -62 -53 -90 -54 -13 0 -30 -6 -38 -14 -43 -43 -298 -46 -428 -6
-82 26 -119 48 -112 66 3 8 0 14 -7 15 -7 0 -4 3 5 7 9 4 30 24 46 44 16 21
31 35 34 33 2 -2 10 6 17 18 13 20 13 21 -2 9 -9 -8 -22 -10 -28 -6 -7 4 -9 3
-6 -3 4 -6 -1 -17 -10 -24 -15 -12 -16 -12 -10 4 6 16 3 15 -33 -3 -50 -25
-62 -25 -105 3 -39 25 -42 32 -19 41 8 3 13 2 9 -3 -5 -10 45 -51 62 -51 5 0
35 16 67 35 64 39 71 41 60 23 -4 -8 -3 -10 2 -5 5 5 8 12 7 15 -1 4 6 16 15
26 16 18 16 19 0 13 -22 -8 -50 14 -39 32 7 11 13 11 32 1 13 -7 27 -17 30
-22 3 -5 12 -1 20 8 8 10 9 15 3 11 -7 -4 -32 19 -60 55 -26 34 -64 76 -83 94
l-36 33 -42 -42 c-24 -22 -43 -38 -43 -34 0 4 0 10 1 13 0 3 -8 12 -18 19 -14
11 -15 16 -6 26 10 10 10 16 0 28 -10 14 -10 14 5 3 14 -11 22 -8 58 25 23 21
46 47 52 58 9 16 8 18 -3 8 -18 -18 -23 -17 -61 14 l-33 27 24 -27 c27 -30 35
-54 20 -62 -5 -3 -35 12 -66 33 -32 22 -69 43 -82 47 -19 6 -22 12 -17 37 3
18 2 27 -4 23 -6 -3 -10 -13 -10 -21 0 -19 -31 -15 -38 5 -3 9 0 11 9 5 12 -7
12 -5 0 9 -10 13 -10 17 -1 17 10 0 10 3 0 15 -23 28 7 15 85 -36 43 -28 75
-44 72 -37 -3 7 -8 20 -12 30 -5 12 10 30 57 68 35 29 73 64 85 79 27 33 40
21 22 -21 -8 -18 -14 -36 -15 -40 -1 -5 -3 -11 -4 -15 -1 -5 -2 -11 -1 -15 0
-5 -4 -8 -11 -8 -9 0 -9 -3 -1 -11 6 -6 8 -30 5 -55 -2 -24 -2 -44 0 -44 3 0
27 27 53 61 l47 60 -26 48 c-22 42 -24 50 -12 61 12 9 18 6 30 -19 9 -16 16
-38 16 -48 1 -15 5 -13 25 10 14 16 22 34 19 40 -4 7 -4 9 1 5 5 -5 14 1 22
12 16 23 34 25 51 8z m482 -34 c0 -3 -13 4 -30 16 -16 12 -30 24 -30 26 0 3
14 -4 30 -16 17 -12 30 -24 30 -26z m447 -9 c0 -17 -13 -20 -21 -6 -4 5 0 12
6 14 7 3 13 6 14 6 0 1 1 -6 1 -14z m-1372 -34 c-3 -6 -11 -11 -17 -11 -6 0
-6 6 2 15 14 17 26 13 15 -4z m76 -51 c-22 -22 -41 -36 -41 -30 0 12 72 82 78
75 3 -2 -14 -23 -37 -45z m444 13 c-5 -36 -4 -36 6 -10 6 15 14 27 19 27 12 0
41 -60 34 -71 -7 -12 -111 -11 -119 1 -3 6 -14 10 -23 10 -15 0 -15 -2 -2 -10
13 -8 12 -10 -2 -10 -10 0 -18 7 -18 15 0 11 12 15 43 16 23 1 32 4 20 6 -25
5 -32 33 -8 33 8 0 15 4 15 9 0 5 8 12 18 14 9 3 18 5 20 6 2 0 0 -16 -3 -36z
m506 -6 c10 -18 6 -17 -20 7 -36 34 -39 41 -11 26 11 -6 25 -20 31 -33z m369
17 c0 -2 -9 0 -20 6 -11 6 -20 13 -20 16 0 2 9 0 20 -6 11 -6 20 -13 20 -16z
m-753 -9 c3 -9 2 -19 -1 -23 -8 -8 -38 10 -44 26 -6 18 38 14 45 -3z m262 -13
c8 -14 6 -19 -5 -19 -7 0 -14 9 -14 19 0 10 2 18 5 18 2 0 9 -8 14 -18z m473
-14 c-9 -9 -12 -7 -12 12 0 19 3 21 12 12 9 -9 9 -15 0 -24z m-239 5 c-7 -2
-19 -2 -25 0 -7 3 -2 5 12 5 14 0 19 -2 13 -5z m-50 -10 c-7 -2 -21 -2 -30 0
-10 3 -4 5 12 5 17 0 24 -2 18 -5z m-1443 -18 c0 -6 12 -17 27 -24 27 -12 27
-12 10 6 -24 27 -22 29 23 25 38 -4 40 -6 39 -36 -2 -35 36 -162 51 -171 17
-10 11 -25 -7 -18 -15 6 -16 5 -3 -9 9 -9 17 -12 21 -6 4 6 14 0 23 -13 12
-18 13 -25 3 -31 -19 -12 -27 -10 -27 8 0 9 -6 14 -13 11 -7 -2 -26 8 -41 24
-16 16 -32 29 -36 29 -12 0 -33 88 -26 106 3 9 12 14 20 11 8 -3 16 2 18 11 6
22 -1 42 -14 42 -6 0 -8 -6 -5 -13 6 -17 -79 -61 -88 -47 -3 6 -1 10 4 10 6 0
11 5 11 10 0 6 -9 10 -19 10 -11 0 -23 5 -27 12 -5 7 -3 8 5 3 7 -4 5 5 -5 20
-14 21 -15 28 -5 35 20 12 61 9 61 -5z m253 -5 c-6 -21 -28 -27 -38 -10 -3 6
4 14 17 19 13 6 24 10 25 10 0 1 -1 -8 -4 -19z m1122 10 c-11 -5 -29 -9 -40
-9 l-20 0 20 9 c11 5 29 9 40 9 l20 0 -20 -9z m-1215 -15 l-25 -14 25 -1 c25
-1 25 -1 5 -17 -16 -13 -17 -15 -2 -10 20 8 23 -8 2 -16 -18 -8 -11 -45 12
-63 16 -12 16 -15 3 -24 -13 -9 -13 -10 0 -10 13 0 13 -1 0 -10 -8 -5 -10 -10
-4 -10 13 0 40 -58 31 -66 -8 -8 -58 73 -75 121 -7 22 -16 61 -19 87 l-6 48
39 0 c39 -1 39 -1 14 -15z m1220 -9 c0 -3 -4 -8 -10 -11 -5 -3 -10 -1 -10 4 0
6 5 11 10 11 6 0 10 -2 10 -4z m60 0 c0 -2 -11 -6 -25 -8 -14 -3 -25 -1 -25 3
0 5 11 9 25 9 14 0 25 -2 25 -4z m155 -16 c3 -5 2 -10 -4 -10 -5 0 -13 5 -16
10 -3 6 -2 10 4 10 5 0 13 -4 16 -10z m-240 -20 c3 -6 -5 -10 -19 -10 -24 0
-109 -78 -147 -137 -16 -24 -42 -47 -128 -112 -34 -26 -86 -37 -96 -21 -3 6 3
10 14 10 25 0 26 8 6 30 -13 14 -12 16 9 15 13 0 30 -6 39 -13 13 -11 22 -5
66 41 28 29 61 69 73 87 13 19 27 33 31 31 10 -3 68 45 67 56 0 4 15 13 33 20
41 15 45 15 52 3z m84 -6 c2 -2 -10 -4 -27 -4 -17 0 -34 4 -37 10 -5 9 53 3
64 -6z m245 0 c4 -10 2 -13 -6 -8 -6 4 -18 -2 -26 -12 -14 -18 -14 -18 -8 -1
3 10 6 23 6 28 0 15 27 10 34 -7z m66 6 c0 -5 -7 -10 -16 -10 -8 0 -12 5 -9
10 3 6 10 10 16 10 5 0 9 -4 9 -10z m-1499 -27 c2 -78 52 -232 97 -303 37 -59
100 -127 153 -166 18 -13 28 -24 22 -24 -39 0 -155 120 -212 220 -48 84 -57
108 -76 209 -18 100 -18 91 0 91 9 0 15 -10 16 -27z m759 23 c0 -9 -30 -14
-35 -6 -4 6 3 10 14 10 12 0 21 -2 21 -4z m585 -16 c3 -5 1 -10 -6 -10 -7 0
-9 -10 -5 -30 3 -16 1 -30 -4 -30 -5 0 -7 -6 -4 -13 7 -20 -50 -158 -93 -225
-35 -57 -120 -146 -161 -170 -29 -16 -29 3 -1 26 71 57 95 82 132 136 22 34
48 66 56 73 9 6 13 14 9 18 -3 3 2 30 12 58 10 29 24 80 31 115 13 60 21 73
34 52z m-1284 -37 c-9 -16 -10 -14 -11 12 0 21 3 26 11 18 8 -8 8 -16 0 -30z
m1156 5 c-3 -8 -6 -5 -6 6 -1 11 2 17 5 13 3 -3 4 -12 1 -19z m-327 -40 c0
-16 -18 -7 -33 15 -15 20 -16 21 -16 3 -1 -16 -4 -17 -13 -8 -9 9 -8 15 8 26
17 13 21 13 36 -7 10 -12 18 -25 18 -29z m-1120 33 c0 -5 3 -18 7 -28 5 -16 4
-16 -14 2 -20 20 -21 35 -2 35 5 0 9 -4 9 -9z m680 -24 c0 -5 -4 -5 -10 -2 -5
3 -10 14 -10 23 0 15 2 15 10 2 5 -8 10 -19 10 -23z m160 23 c0 -5 -2 -10 -4
-10 -3 0 -8 5 -11 10 -3 6 -1 10 4 10 6 0 11 -4 11 -10z m788 -27 c-5 -21 -10
-45 -11 -54 -1 -9 -8 -22 -16 -29 -12 -12 -13 -11 -7 11 4 13 13 43 19 67 5
23 14 42 18 42 4 0 2 -17 -3 -37z m74 25 c-7 -7 -12 -19 -12 -27 0 -8 -8 -23
-17 -33 -12 -14 -14 -21 -5 -30 8 -8 4 -16 -14 -31 -14 -10 -23 -22 -20 -24 3
-3 1 -14 -5 -24 -8 -16 -12 -17 -24 -7 -11 11 -8 19 21 49 19 19 32 38 29 41
-8 8 35 98 47 98 9 0 9 -3 0 -12z m-1346 -12 c1 0 11 -20 23 -44 22 -44 21
-65 -3 -56 -8 3 -17 0 -21 -6 -11 -17 1 -23 23 -11 16 8 24 5 47 -19 16 -17
23 -30 16 -30 -13 0 -43 -30 -61 -61 -6 -11 -3 -27 10 -52 22 -40 11 -51 -14
-15 -23 33 -20 71 9 102 36 39 31 51 -8 22 -47 -36 -60 -32 -17 5 l35 29 -43
-16 c-24 -9 -46 -14 -49 -10 -4 4 2 9 13 12 20 5 20 6 3 42 -10 20 -21 51 -24
67 l-6 30 16 -30 15 -30 -5 29 c-6 26 -5 27 10 12 13 -13 14 -20 6 -30 -12
-14 -5 -46 10 -46 5 0 9 7 9 16 0 8 4 12 10 9 15 -9 -21 68 -39 83 -14 11 -13
12 9 6 14 -3 26 -7 26 -8z m381 -28 c-3 -8 -6 -5 -6 6 -1 11 2 17 5 13 3 -3 4
-12 1 -19z m703 13 c0 -5 -6 -14 -14 -20 -12 -10 -13 -8 -9 8 5 21 23 30 23
12z m207 -13 c-3 -8 -6 -5 -6 6 -1 11 2 17 5 13 3 -3 4 -12 1 -19z m-1722 -47
c-6 -5 -25 10 -25 20 0 5 6 4 14 -3 8 -7 12 -15 11 -17z m1498 3 c-3 -7 -11
-10 -19 -7 -20 8 -17 22 5 20 10 0 17 -7 14 -13z m-88 -13 c-3 -5 -1 -12 5
-16 5 -3 10 -11 10 -18 0 -6 -7 -2 -16 9 -13 16 -15 16 -10 2 6 -21 -5 -30
-24 -18 -11 7 -9 13 11 29 27 23 33 26 24 12z m-550 -21 c3 -5 1 -10 -4 -10
-6 0 -11 5 -11 10 0 6 2 10 4 10 3 0 8 -4 11 -10z m624 -13 c-16 -30 -24 -36
-15 -12 5 14 4 17 -3 10 -6 -6 -12 -23 -13 -38 -1 -14 -9 -29 -17 -32 -22 -8
-27 4 -7 18 10 7 16 17 15 22 -6 21 12 51 31 52 18 2 19 -1 9 -20z m-1387 -55
c21 -15 17 -27 -15 -43 -21 -12 -21 -11 -4 8 24 28 21 40 -5 17 -21 -18 -21
-18 -15 0 6 14 4 17 -10 12 -14 -6 -14 -4 3 15 18 22 18 22 0 15 -16 -6 -17
-4 -6 9 12 15 14 15 23 -2 6 -10 19 -24 29 -31z m1311 21 c-2 -6 -16 -14 -31
-18 -15 -4 -21 -9 -15 -13 8 -5 8 -12 -2 -25 -13 -18 -13 -18 -17 0 -3 13 -7
8 -14 -16 -6 -19 -15 -36 -22 -37 -7 -1 -8 0 -2 3 5 2 7 9 4 14 -3 6 -11 3
-18 -6 -10 -14 -14 -14 -23 -3 -9 10 -3 22 27 55 21 22 42 38 45 35 4 -4 11 1
16 10 10 18 59 20 52 1z m-772 -10 c13 -16 12 -17 -3 -4 -10 7 -18 15 -18 17
0 8 8 3 21 -13z m-343 0 c-7 -23 74 -154 129 -212 35 -36 63 -67 63 -68 0 -2
-6 -3 -14 -3 -13 0 -62 51 -116 121 -14 17 -37 45 -52 61 -16 16 -28 33 -28
37 0 5 -11 12 -25 15 -15 4 -22 11 -19 20 7 19 67 47 62 29z m274 -23 c-1 -6
2 -9 7 -5 6 3 15 -3 20 -13 6 -10 35 -36 66 -57 33 -23 51 -41 44 -46 -14 -8
-52 1 -61 15 -5 7 -8 4 -8 -6 0 -25 -13 -22 -41 9 -18 20 -20 25 -6 20 9 -4
17 -2 17 3 0 6 -6 10 -14 10 -7 0 -16 9 -19 19 -3 14 -11 18 -25 14 -12 -3
-18 -11 -16 -18 4 -10 -1 -12 -18 -8 -18 4 -9 -9 37 -54 46 -45 60 -54 63 -40
4 19 17 23 27 8 3 -6 -4 -15 -16 -21 -17 -10 -27 -7 -58 14 -37 26 -81 77 -81
94 0 5 11 14 25 20 25 12 34 32 14 32 -8 0 -8 4 0 14 14 17 47 14 43 -4z m70
-10 c7 -11 21 -20 30 -20 18 0 24 -20 11 -34 -7 -7 -73 52 -73 66 0 15 20 8
32 -12z m648 6 c0 -2 -8 -10 -17 -17 -16 -13 -17 -12 -4 4 13 16 21 21 21 13z
m-97 -36 c26 -13 47 -28 47 -32 0 -12 -7 -10 -50 17 -40 25 -66 33 -55 16 3
-5 1 -12 -4 -15 -5 -4 -8 2 -6 11 2 10 4 22 4 26 1 5 4 7 9 5 4 -2 28 -14 55
-28z m467 15 c14 -8 20 -14 13 -15 -7 0 -23 -18 -35 -40 -13 -22 -31 -42 -40
-46 -9 -3 -20 -13 -23 -23 -3 -10 -18 -29 -33 -43 -25 -24 -28 -25 -42 -10
-13 14 -12 15 3 9 11 -4 22 1 32 16 18 26 20 41 3 31 -8 -4 -10 -3 -5 2 5 5
14 9 20 9 7 0 11 9 10 20 -1 11 0 14 3 8 8 -19 27 -16 20 3 -3 8 -2 13 3 9 5
-3 20 9 32 27 16 21 19 33 11 36 -13 4 -17 22 -4 22 4 -1 18 -7 32 -15z
m-1530 -10 c-7 -8 -17 -15 -22 -15 -6 0 -5 7 2 15 7 8 17 15 22 15 6 0 5 -7
-2 -15z m870 5 c0 -5 -4 -10 -10 -10 -5 0 -10 5 -10 10 0 6 5 10 10 10 6 0 10
-4 10 -10z m434 -5 c-4 -8 -14 -15 -24 -15 -11 0 -20 -9 -22 -22 -2 -12 -8
-23 -15 -25 -15 -5 -5 36 15 60 19 21 54 23 46 2z m-1277 -31 c-9 -9 -28 6
-21 18 4 6 10 6 17 -1 6 -6 8 -13 4 -17z m1048 -19 c22 -18 15 -17 -27 4 -16
8 -28 18 -28 23 0 10 25 -2 55 -27z m606 18 c13 -16 12 -17 -3 -4 -17 13 -22
21 -14 21 2 0 10 -8 17 -17z m-48 -18 c-3 -9 -8 -14 -10 -11 -3 3 -2 9 2 15 9
16 15 13 8 -4z m-1573 -10 c-7 -9 -15 -13 -19 -10 -3 3 1 10 9 15 21 14 24 12
10 -5z m1185 -16 c64 -16 67 -18 29 -18 -22 -1 -61 6 -87 15 -57 19 -84 14
-42 -9 17 -9 27 -16 23 -17 -12 0 -58 23 -58 30 0 16 26 29 45 23 11 -3 52
-14 90 -24z m-220 11 c-3 -5 -10 -10 -16 -10 -5 0 -9 5 -9 10 0 6 7 10 16 10
8 0 12 -4 9 -10z m66 -32 c5 1 9 -2 9 -8 0 -12 -35 -31 -44 -23 -3 3 -6 1 -6
-6 0 -7 -4 -9 -10 -6 -5 3 -10 1 -10 -4 0 -18 58 -13 69 7 9 14 10 14 11 1 0
-37 -48 -51 -84 -24 -11 8 -25 15 -30 15 -6 0 -5 -4 2 -9 13 -8 -16 -18 -102
-36 -26 -6 -28 -4 -22 20 4 16 2 25 -5 25 -7 0 -9 3 -6 6 4 4 13 1 21 -6 9 -6
21 -10 28 -7 8 4 7 6 -4 6 -34 2 -18 17 30 30 26 6 61 18 76 26 15 8 33 12 40
8 8 -5 8 -3 1 8 -5 8 -2 6 9 -6 10 -11 23 -19 27 -17z m-1001 28 c0 -3 -4 -8
-10 -11 -5 -3 -10 -1 -10 4 0 6 5 11 10 11 6 0 10 -2 10 -4z m880 -21 c-16
-19 -30 -19 -30 -1 0 8 8 16 18 18 24 6 27 1 12 -17z m-110 -5 c0 -5 -2 -10
-4 -10 -3 0 -8 5 -11 10 -3 6 -1 10 4 10 6 0 11 -4 11 -10z m48 -2 c-6 -18
-28 -21 -28 -4 0 9 7 16 16 16 9 0 14 -5 12 -12z m-796 -10 c-19 -19 -14 -32
6 -17 15 13 16 12 3 -4 -9 -12 -17 -15 -24 -8 -10 10 7 41 21 41 3 0 1 -5 -6
-12z m433 2 c-3 -5 -12 -7 -20 -3 -21 7 -19 13 6 13 11 0 18 -4 14 -10z m296
-12 c5 -60 11 -83 19 -86 6 -2 6 -11 -1 -24 -10 -19 -9 -20 22 -15 19 4 53 9
77 13 23 4 45 11 48 15 3 5 13 9 23 9 10 0 39 11 65 25 60 32 59 25 -1 -12
-51 -31 -131 -59 -195 -69 -21 -4 -41 -11 -44 -15 -3 -5 -15 -4 -27 3 -21 11
-21 11 -2 19 17 6 17 8 3 8 -20 1 -25 31 -5 32 10 0 10 2 0 6 -20 7 -17 103 2
103 8 0 16 -6 16 -12z m-677 -39 c-3 -5 -10 -9 -15 -9 -6 0 -7 5 -3 12 5 8 2
9 -11 4 -15 -5 -16 -4 -5 9 10 12 16 13 26 4 8 -6 11 -15 8 -20z m586 11 c0
-5 -4 -10 -10 -10 -5 0 -10 5 -10 10 0 6 5 10 10 10 6 0 10 -4 10 -10z m27
-37 c1 -10 4 -29 7 -43 4 -16 0 -13 -10 10 -9 19 -19 30 -21 23 -2 -7 1 -21 7
-32 6 -12 7 -21 1 -21 -5 0 -14 14 -20 32 -9 24 -8 34 1 40 21 13 34 9 35 -9z
m728 7 c3 -5 2 -10 -4 -10 -5 0 -13 5 -16 10 -3 6 -2 10 4 10 5 0 13 -4 16
-10z m-863 -25 c11 -14 27 -25 36 -26 12 0 10 -3 -6 -10 -16 -6 -34 -4 -59 6
-35 15 -35 16 -18 35 23 25 23 25 47 -5z m833 15 c3 -5 2 -10 -4 -10 -5 0 -13
5 -16 10 -3 6 -2 10 4 10 5 0 13 -4 16 -10z m-1262 -17 c-6 -16 -5 -16 10 -4
10 8 21 10 25 6 4 -4 1 -10 -6 -12 -6 -3 -9 -9 -6 -14 3 -6 11 -5 20 2 20 16
32 2 13 -16 -12 -12 -18 -10 -43 10 -16 12 -25 28 -22 34 11 17 16 13 9 -6z
m477 13 c0 -11 -19 -15 -25 -6 -3 5 1 10 9 10 9 0 16 -2 16 -4z m272 -18 c-21
-22 -22 -22 -39 -4 -10 10 -12 16 -6 12 7 -4 21 -2 30 3 31 18 38 12 15 -11z
m382 -9 c-9 -11 -22 -19 -28 -19 -6 0 -3 7 8 15 10 7 15 18 11 24 -4 7 0 8 10
5 14 -6 14 -8 -1 -25z m106 -3 c-7 -7 -14 -6 -21 1 -9 9 -7 12 9 10 14 -1 18
-5 12 -11z m-230 -12 c0 -17 -22 -14 -28 4 -2 7 3 12 12 12 9 0 16 -7 16 -16z
m-919 -27 c-13 -13 -26 -3 -16 12 3 6 11 8 17 5 6 -4 6 -10 -1 -17z m113 0
c17 -13 52 -35 79 -50 26 -16 47 -33 47 -39 0 -7 -7 -5 -17 4 -10 9 -28 19
-40 22 -13 4 -29 13 -36 19 -7 7 -29 21 -50 31 -20 11 -37 23 -37 28 0 15 22
9 54 -15z m310 8 c-7 -16 -54 -21 -54 -6 0 5 12 12 28 14 15 2 28 5 29 6 1 0
0 -6 -3 -14z m668 0 c0 -5 -5 -11 -11 -13 -6 -2 -11 4 -11 13 0 9 5 15 11 13
6 -2 11 -8 11 -13z m-112 -5 c0 -14 -39 -32 -52 -24 -7 4 -2 12 13 20 29 16
39 17 39 4z m-946 -15 c3 -8 12 -15 21 -15 8 0 15 -4 15 -9 0 -5 9 -11 20 -14
11 -3 20 -11 20 -17 0 -9 -3 -10 -13 -1 -8 6 -17 8 -20 4 -4 -3 -7 -1 -7 5 0
7 -7 12 -15 12 -8 0 -15 5 -15 12 0 6 -3 8 -7 5 -9 -9 -34 13 -27 24 8 14 21
11 28 -6z m416 5 c0 -5 -2 -10 -4 -10 -3 0 -8 5 -11 10 -3 6 -1 10 4 10 6 0
11 -4 11 -10z m50 6 c0 -2 3 -13 6 -23 5 -17 5 -17 -6 0 -9 14 -15 16 -26 6
-14 -11 -20 1 -7 14 7 8 33 10 33 3z m193 -3 c-7 -2 -19 -2 -25 0 -7 3 -2 5
12 5 14 0 19 -2 13 -5z m355 -7 c-7 -8 -15 -12 -17 -11 -5 6 10 25 20 25 5 0
4 -6 -3 -14z m-160 -36 c-18 -25 -29 -30 -62 -30 l-41 1 60 29 c33 16 61 29
63 30 1 0 -7 -13 -20 -30z m112 10 c0 -5 -13 -16 -30 -25 -16 -9 -30 -11 -30
-6 0 5 9 13 20 16 11 3 20 11 20 16 0 5 5 9 10 9 6 0 10 -4 10 -10z m-70 -40
c0 -5 -4 -10 -10 -10 -5 0 -10 5 -10 10 0 6 5 10 10 10 6 0 10 -4 10 -10z
m-760 -10 c0 -5 -7 -7 -15 -4 -8 4 -15 8 -15 10 0 2 7 4 15 4 8 0 15 -4 15
-10z m110 -10 c8 -5 12 -11 9 -14 -3 -3 -14 1 -25 9 -21 16 -8 20 16 5z m491
-9 c-6 -10 -9 -20 -6 -22 2 -2 -9 -5 -23 -5 -15 -1 -64 -5 -109 -9 -88 -8
-109 2 -50 23 41 15 87 16 87 2 0 -15 22 -12 60 9 45 25 53 26 41 2z m59 -11
c-8 -5 -19 -10 -25 -10 -5 0 -3 5 5 10 8 5 20 10 25 10 6 0 3 -5 -5 -10z
m-465 -10 c7 -12 -2 -12 -30 0 -19 8 -19 9 2 9 12 1 25 -3 28 -9z m-125 -14
c0 -3 -4 -8 -10 -11 -5 -3 -10 -1 -10 4 0 6 5 11 10 11 6 0 10 -2 10 -4z m600
0 c0 -3 -4 -8 -10 -11 -5 -3 -10 -1 -10 4 0 6 5 11 10 11 6 0 10 -2 10 -4z
m-286 -27 c-7 -12 -54 -12 -54 0 0 5 6 11 13 14 18 6 48 -4 41 -14z m216 11
c-8 -5 -22 -10 -30 -10 -13 0 -13 1 0 10 8 5 22 10 30 10 13 0 13 -1 0 -10z
m-367 -7 c-7 -2 -19 -2 -25 0 -7 3 -2 5 12 5 14 0 19 -2 13 -5z m302 -3 c-3
-5 -10 -10 -16 -10 -5 0 -9 5 -9 10 0 6 7 10 16 10 8 0 12 -4 9 -10z m-615
-390 c0 -5 -2 -10 -4 -10 -3 0 -8 5 -11 10 -3 6 -1 10 4 10 6 0 11 -4 11 -10z
m90 -64 c0 -3 -4 -8 -10 -11 -5 -3 -10 -1 -10 4 0 6 5 11 10 11 6 0 10 -2 10
-4z m-600 -37 c31 -5 100 -11 154 -14 55 -2 101 -7 104 -9 2 -3 13 -1 23 5 11
5 19 8 19 5 0 -2 2 -10 5 -18 4 -10 -7 -14 -42 -15 -67 -1 -66 -1 -59 -19 5
-14 4 -15 -9 -4 -8 7 -12 16 -9 21 3 5 0 9 -6 9 -7 0 -14 -9 -17 -20 -3 -11
-12 -20 -20 -20 -13 0 -13 3 -2 18 7 9 9 14 5 10 -5 -4 -15 -3 -23 3 -10 9
-13 8 -13 -1 0 -9 -3 -10 -14 -1 -7 6 -30 9 -50 7 -20 -3 -36 -1 -36 3 0 8
-47 17 -120 25 -14 1 -31 5 -37 9 -6 4 -14 0 -17 -9 -4 -9 -11 -12 -18 -8 -7
5 -25 7 -40 5 -38 -4 -38 26 0 32 34 5 150 -2 222 -14z m340 -23 c0 -3 -4 -8
-10 -11 -5 -3 -10 -1 -10 4 0 6 5 11 10 11 6 0 10 -2 10 -4z m280 -20 c17 -10
31 -11 50 -4 15 6 86 8 180 4 85 -3 190 -7 233 -8 42 -1 77 -5 77 -9 0 -4 -39
-6 -87 -3 -193 9 -339 11 -361 3 -41 -15 -81 -19 -87 -9 -4 6 -10 8 -15 5 -5
-3 -14 4 -20 15 -12 23 -5 25 30 6z m-42 -21 c16 -35 14 -44 -4 -20 -8 11 -20
20 -26 20 -6 0 -13 6 -15 13 -9 24 34 12 45 -13z m645 -2 c-7 -2 -19 -2 -25 0
-7 3 -2 5 12 5 14 0 19 -2 13 -5z m201 -1 c3 -5 -8 -6 -25 -4 -16 2 -29 6 -29
8 0 8 49 4 54 -4z m731 -3 c66 -1 107 -4 91 -8 -27 -5 -544 -6 -556 0 -16 8
141 16 235 13 61 -2 164 -4 230 -5z m-627 -17 c2 -8 -4 -11 -20 -8 -12 3 -26
5 -30 5 -5 1 -8 6 -8 12 0 14 52 7 58 -9z m72 8 c12 -8 11 -10 -7 -10 -13 0
-23 5 -23 10 0 13 11 13 30 0z m70 -5 c11 -13 10 -14 -4 -9 -9 3 -16 10 -16
15 0 13 6 11 20 -6z m710 5 c0 -5 -5 -10 -11 -10 -5 0 -7 5 -4 10 3 6 8 10 11
10 2 0 4 -4 4 -10z"/>
<path d="M1940 1821 c0 -6 4 -13 10 -16 6 -3 7 1 4 9 -7 18 -14 21 -14 7z"/>
<path d="M1990 1740 c6 -11 13 -20 16 -20 2 0 0 9 -6 20 -6 11 -13 20 -16 20
-2 0 0 -9 6 -20z"/>
<path d="M1820 1390 c-19 -11 -31 -19 -27 -20 11 0 67 29 67 35 0 7 -1 7 -40
-15z"/>
<path d="M1136 1516 c-36 -34 -47 -66 -23 -66 8 0 19 -11 25 -25 6 -14 17 -25
23 -25 8 0 8 4 -1 15 -10 12 -9 16 4 21 34 13 5 51 -34 45 -8 -2 -12 0 -8 4 4
4 17 8 29 9 16 1 23 8 25 29 1 15 1 27 -1 27 -2 0 -20 -15 -39 -34z"/>
<path d="M1006 1445 c-3 -8 -1 -15 3 -15 5 0 11 7 15 15 3 8 1 15 -3 15 -5 0
-11 -7 -15 -15z"/>
<path d="M1211 1329 c-1 -9 7 -23 17 -30 15 -12 16 -12 6 1 -6 8 -14 22 -17
30 -5 13 -6 12 -6 -1z"/>
<path d="M1626 1295 c-25 -20 -46 -38 -46 -41 0 -5 63 41 95 68 26 23 -8 3
-49 -27z"/>
<path d="M1284 1242 c20 -24 34 -48 30 -54 -4 -6 -3 -8 3 -5 6 4 21 -9 34 -28
27 -39 31 -41 49 -20 10 12 9 15 -4 15 -10 0 -47 30 -83 68 -37 37 -50 48 -29
24z"/>
<path d="M1539 1223 c-13 -16 -12 -17 4 -4 16 13 21 21 13 21 -2 0 -10 -8 -17
-17z"/>
<path d="M1489 1183 c-13 -16 -12 -17 4 -4 16 13 21 21 13 21 -2 0 -10 -8 -17
-17z"/>
<path d="M1700 1020 c-9 -6 -10 -10 -3 -10 6 0 15 5 18 10 8 12 4 12 -15 0z"/>
<path d="M1640 1000 c-13 -9 -13 -10 0 -10 8 0 22 5 30 10 13 9 13 10 0 10 -8
0 -22 -5 -30 -10z"/>
<path d="M1305 930 c3 -5 8 -10 11 -10 2 0 4 5 4 10 0 6 -5 10 -11 10 -5 0 -7
-4 -4 -10z"/>
</g>
</svg>
